<?xml version="1.0" encoding="UTF-8"?><svg id="a" xmlns="http://www.w3.org/2000/svg" width="160.3326mm" height="111.3062mm" viewBox="0 0 454.4862 315.5137"><defs><style>.b{fill:#231f20;}</style></defs><path class="b" d="M270.7409,197.4757c-3.5818,4.0062-32.7385,33.3519-37.4089,32.3269-5.8292-1.2793-18.3192-12.8851-22.5369-16.6405-20.131-17.9247-54.6254-43.2415-25.8696-72.8334,14.2204-14.6339,37.8504-9.3536,47.4945,7.4749,16.3258-28.6503,64.097-14.5784,56.2189,18.2417-2.4694,10.2875-7.9505,20.3042-17.898,31.4303Z"/><path class="b" d="M439.1507,62.4082c-5.9452-6.8116-15.0875-10.1671-21.3624-16.388-9.2357-11.4643-9.9572-19.3286-27.2344-19.9398-13.099.2521-30.6294-3.2155-41.0421,6.1161-3.7811,4.0179-5.7457,9.4861-11.5739,11.1504-10.3304,2.7265-23.4395.4399-30.1161-8.5448-8.52-9.3923-14.2988-22.7651-24.7867-29.7879l-.1523-.0918c-19.8518-9.5272-61.5801-2.0115-85.3861-3.5443-26.644-2.0863-31.5649,16.2613-44.4315,34.5646-6.5593,9.5532-20.8391,10.8867-31.017,7.19-5.4693-2.2524-6.5039-8.2494-10.7019-12.1962-10.4232-7.6065-28.4159-4.6166-40.8014-5.3212-31.8567.6738-20.4053,10.7094-37.3459,25.1219C9.2408,62.8381,1.4072,82.934.5984,108.6527c-2.1841,48.3555,2.3994,99.8777,1.2635,148.7613.1489,5.4235.7595,10.803,2.2686,16.0073,10.5893,33.7988,39.913,43.7377,72.4318,41.8782.8806.0024,1.7606-.0005,2.6411.0016v-15.4432c-.553-.0153-1.1085-.0208-1.6611-.0372-19.6146-.4634-44.2036-1.9923-53.4495-22.2975-3.5908-7.2808-4.7781-15.7531-5.0149-23.8366-.4509-36.2158.6516-72.5281-.4713-108.6661-.3081-7.8845-1.4286-17.0675,8.914-15.9802,17.8914-.2367,53.8234.4184,72.1749-.2687,5.854.1481,13.2744-13.1862,7.5421-16.113-21.5547-2.2584-62.3411.8851-84.0579-1.254-6.5751-3.2061-3.8299-15.123-3.0778-21.7718l.0402-.1886c12.9111-55.2811,128.681-6.6177,142.7701-36.6978,8.8546-12.5366,14.7561-32.6575,31.9724-34.4232,24.1021-.8018,49.0376-.6974,73.0579-.2614,5.3029.5433,9.2672,4.1965,12.1954,8.5344,8.6614,10.8628,16.4347,30.7543,30.7202,35.2712,5.0605,1.347,11.3689,1.239,17.4336,1.1874,29.9512.7266,67.511-8.3008,93.3802,7.8555,10.5825,7.4756,17.1331,23.2999,13.5021,35.665-1.2169,4.1339-5.0297,4.3815-8.7908,4.3979-17.9954.6467-55.7088-1.1856-73.5618.7406-4.4183,2.5823-1.4511,9.8665.7169,13.5676,3.1671,4.2606,6.7803,3.6135,13.7947,3.6147,12.4208-.1652,32.48-.4335,47.5593-.6348,9.2452.3807,15.0308-1.4993,20.9926,1.3958,4.3731,24.1697.1917,99.069,1.5984,125.3872.0607,9.3022-2.7838,17.5909-8.8945,25.9542-10.9664,14.8541-27.5688,18.1308-44.8141,18.5556v15.1634c10.4193-.2028,20.7426-1.1392,30.7761-3.8454,18.6123-6.1901,35.4606-24.2874,39.1602-43.2556.997-26.5636.1306-114.2151.584-155.6711,1.0323-18.2462-1.8516-35.8727-15.1443-49.5371Z"/><path class="b" d="M86.0446,293.5921h6.3223v1.6758h-6.3223v-1.6758ZM86.0446,313.6751h6.3223v1.6758h-6.3223v-1.6758ZM88.2795,294.3274h1.8525v20.3467h-1.8525v-20.3467Z"/><path class="b" d="M99.4236,293.5921h1.9697l1.7056,13.6729v3.7637h.6177v-3.7637l1.7056-13.6729h1.9697v21.7588h-1.8818l.1177-6.8516.7056-7.1152h-.6172l-.7354,7.1152-.7939,5.7344h-1.5581l-.7939-5.7344-.7354-7.1152h-.647l.7354,7.1152.1177,6.8516h-1.8818v-21.7588Z"/><path class="b" d="M115.6252,293.5921h1.8525v21.7588h-1.8525v-21.7588ZM118.1242,305.5003h.8237c.2739,0,.4995-.0928.6763-.2793.1763-.1855.2646-.4258.2646-.7207v-8.2324c0-.2939-.0884-.5342-.2646-.7207-.1768-.1855-.4023-.2793-.6763-.2793h-2.0879v-1.6758h2.1172c.6074,0,1.1123.1074,1.5142.3232.4014.2158.7104.5293.9263.9404.2153.4121.3232.9316.3232,1.5586v7.9395c0,.6279-.1079,1.1465-.3232,1.5586-.2158.4111-.5249.7256-.9263.9404-.4019.2158-.9067.3232-1.5142.3232h-.853v-1.6758Z"/><path class="b" d="M128.7981,293.5921h5.4395v1.6758h-4.1753l.5884-.5879v19.583l-.5884-.5879h4.1753v1.6758h-5.4395v-21.7588ZM130.239,303.6477h3.1167v1.6465h-3.1167v-1.6465Z"/><path class="b" d="M141.2946,293.5921h1.8525v21.7588h-1.8525v-21.7588ZM143.7937,306.8821v-1.3818h.8237c.2544,0,.4702-.0928.6465-.2793.1768-.1855.2646-.4258.2646-.7207v-8.2324c0-.2939-.0879-.5342-.2646-.7207-.1763-.1855-.3921-.2793-.6465-.2793h-2.0879v-1.6758h2.0879c.6069,0,1.1172.1074,1.5288.3232s.7202.5293.9263.9404c.2056.4121.3086.9316.3086,1.5586v7.9395c0,.6465-.0933,1.166-.2793,1.5586-.1865.3926-.4702.6904-.8525.8965s-.8677.3086-1.4556.3086l-.6763-.0293-.3237-.2061ZM143.7937,306.8821l1.7056-.499,2.3228,8.9678h-1.8521l-2.1763-8.4688Z"/><path class="b" d="M155.467,293.5921h5.6455v1.6758h-4.3813l.5884-.5879v20.6709h-1.8525v-21.7588ZM156.9079,303.6477h3.6167v1.6465h-3.6167v-1.6465Z"/><path class="b" d="M167.8757,293.5921h5.4404v1.6758h-4.1758l.5879-.5879v19.583l-.5879-.5879h4.1758v1.6758h-5.4404v-21.7588ZM169.3161,303.6477h3.1172v1.6465h-3.1172v-1.6465Z"/><path class="b" d="M181.9157,315.0276c-.4023-.2158-.7109-.5293-.9258-.9414-.2168-.4111-.3242-.9307-.3242-1.5586v-16.1133c0-.627.1074-1.1465.3242-1.5586.2148-.4111.5234-.7246.9258-.9404.4014-.2158.9062-.3232,1.5146-.3232h.6758c.6074,0,1.1172.1074,1.5293.3232.4111.2158.7207.5293.9258.9404.2061.4121.3096.9316.3096,1.5586v2.6758h-1.8525v-2.8223c0-.2939-.0889-.5342-.2646-.7207-.1768-.1855-.3926-.2793-.6475-.2793h-.6465c-.2754,0-.5.0938-.6768.2793-.1758.1865-.2646.4268-.2646.7207v16.4072c0,.2939.0928.5342.2793.7207s.4072.2793.6621.2793h.6465c.2549,0,.4707-.0928.6475-.2793.1758-.1865.2646-.4268.2646-.7207v-2.9111h1.8525v2.7637c0,.6279-.1035,1.1475-.3096,1.5586-.2051.4121-.5146.7256-.9258.9414-.4121.2158-.9219.3232-1.5293.3232h-.6758c-.6084,0-1.1133-.1074-1.5146-.3232Z"/><path class="b" d="M193.3396,293.5921h6.5283v1.6758h-6.5283v-1.6758ZM195.6628,294.1213h1.8818v21.2295h-1.8818v-21.2295Z"/><path class="b" d="M216.0974,293.5921h1.8525v21.7588h-1.8525v-21.7588ZM218.5974,305.5003h.8232c.2744,0,.5-.0928.6758-.2793.1768-.1855.2646-.4258.2646-.7207v-8.2324c0-.2939-.0879-.5342-.2646-.7207-.1758-.1855-.4014-.2793-.6758-.2793h-2.0879v-1.6758h2.1172c.6074,0,1.1123.1074,1.5146.3232.4014.2158.71.5293.9258.9404.2158.4121.3232.9316.3232,1.5586v7.9395c0,.6279-.1074,1.1465-.3232,1.5586-.2158.4111-.5244.7256-.9258.9404-.4023.2158-.9072.3232-1.5146.3232h-.8525v-1.6758Z"/><path class="b" d="M229.2702,293.5921h5.4404v1.6758h-4.1758l.5879-.5879v19.583l-.5879-.5879h4.1758v1.6758h-5.4404v-21.7588ZM230.7116,303.6477h3.1162v1.6465h-3.1162v-1.6465Z"/><path class="b" d="M241.7673,293.5921h1.8525v21.7588h-1.8525v-21.7588ZM244.2673,306.8821v-1.3818h.8232c.2539,0,.4707-.0928.6465-.2793.1768-.1855.2646-.4258.2646-.7207v-8.2324c0-.2939-.0879-.5342-.2646-.7207-.1758-.1855-.3926-.2793-.6465-.2793h-2.0879v-1.6758h2.0879c.6074,0,1.1172.1074,1.5283.3232.4121.2158.7207.5293.9268.9404.2061.4121.3086.9316.3086,1.5586v7.9395c0,.6465-.0928,1.166-.2793,1.5586s-.4707.6904-.8525.8965c-.3828.2061-.8672.3086-1.4561.3086l-.6758-.0293-.3232-.2061ZM244.2673,306.8821l1.7051-.499,2.3232,8.9678h-1.8525l-2.1758-8.4688Z"/><path class="b" d="M255.9392,293.5921h5.6455v1.6758h-4.3809l.5879-.5879v20.6709h-1.8525v-21.7588ZM257.3806,303.6477h3.6162v1.6465h-3.6162v-1.6465Z"/><path class="b" d="M268.3484,293.5921h5.4404v1.6758h-4.1758l.5879-.5879v19.583l-.5879-.5879h4.1758v1.6758h-5.4404v-21.7588ZM269.7898,303.6477h3.1162v1.6465h-3.1162v-1.6465Z"/><path class="b" d="M282.3884,315.0276c-.4023-.2158-.7109-.5293-.9258-.9414-.2168-.4111-.3242-.9307-.3242-1.5586v-16.1133c0-.627.1074-1.1465.3242-1.5586.2148-.4111.5234-.7246.9258-.9404.4014-.2158.9062-.3232,1.5146-.3232h.6758c.6074,0,1.1172.1074,1.5293.3232.4111.2158.7207.5293.9258.9404.2061.4121.3096.9316.3096,1.5586v2.6758h-1.8525v-2.8223c0-.2939-.0889-.5342-.2646-.7207-.1768-.1855-.3926-.2793-.6475-.2793h-.6465c-.2754,0-.5.0938-.6768.2793-.1758.1865-.2646.4268-.2646.7207v16.4072c0,.2939.0928.5342.2793.7207s.4072.2793.6621.2793h.6465c.2549,0,.4707-.0928.6475-.2793.1758-.1865.2646-.4268.2646-.7207v-2.9111h1.8525v2.7637c0,.6279-.1035,1.1475-.3096,1.5586-.2051.4121-.5146.7256-.9258.9414-.4121.2158-.9219.3232-1.5293.3232h-.6758c-.6084,0-1.1133-.1074-1.5146-.3232Z"/><path class="b" d="M293.8122,293.5921h6.5283v1.6758h-6.5283v-1.6758ZM296.1355,294.1213h1.8818v21.2295h-1.8818v-21.2295Z"/><path class="b" d="M316.57,293.5921h1.8525v21.7588h-1.8525v-21.7588ZM319.07,305.5003h.8232c.2744,0,.5-.0928.6758-.2793.1768-.1855.2646-.4258.2646-.7207v-8.2324c0-.2939-.0879-.5342-.2646-.7207-.1758-.1855-.4014-.2793-.6758-.2793h-2.0879v-1.6758h2.1172c.6074,0,1.1123.1074,1.5146.3232.4014.2158.71.5293.9258.9404.2158.4121.3232.9316.3232,1.5586v7.9395c0,.6279-.1074,1.1465-.3232,1.5586-.2158.4111-.5244.7256-.9258.9404-.4023.2158-.9072.3232-1.5146.3232h-.8525v-1.6758Z"/><path class="b" d="M329.7429,293.5921h1.8525v21.7588h-1.8525v-21.7588ZM330.655,303.6184h4.3223v1.6758h-4.3223v-1.6758ZM334.0954,293.5921h1.8525v21.7588h-1.8525v-21.7588Z"/><path class="b" d="M345.4304,315.0276c-.4023-.2158-.7109-.5293-.9258-.9414-.2168-.4111-.3242-.9307-.3242-1.5586v-16.1133c0-.627.1074-1.1465.3242-1.5586.2148-.4111.5234-.7246.9258-.9404.4014-.2158.9062-.3232,1.5146-.3232h.6758c.6074,0,1.1172.1074,1.5293.3232.4111.2158.7207.5293.9258.9404.2061.4121.3096.9316.3096,1.5586v16.1133c0,.6279-.1035,1.1475-.3096,1.5586-.2051.4121-.5146.7256-.9258.9414-.4121.2158-.9219.3232-1.5293.3232h-.6758c-.6084,0-1.1133-.1074-1.5146-.3232ZM348.2683,313.3958c.1758-.1865.2646-.4268.2646-.7207v-16.4072c0-.2939-.0889-.5342-.2646-.7207-.1768-.1855-.3926-.2793-.6475-.2793h-.6465c-.2754,0-.5.0938-.6768.2793-.1758.1865-.2646.4268-.2646.7207v16.4072c0,.2939.0928.5342.2793.7207s.4072.2793.6621.2793h.6465c.2549,0,.4707-.0928.6475-.2793Z"/><path class="b" d="M357.7361,293.5921h6.5283v1.6758h-6.5283v-1.6758ZM360.0593,294.1213h1.8818v21.2295h-1.8818v-21.2295Z"/><path class="b" d="M371.9821,315.0276c-.4023-.2158-.7109-.5293-.9258-.9414-.2168-.4111-.3242-.9307-.3242-1.5586v-16.1133c0-.627.1074-1.1465.3242-1.5586.2148-.4111.5234-.7246.9258-.9404.4014-.2158.9062-.3232,1.5146-.3232h.6758c.6074,0,1.1172.1074,1.5293.3232.4111.2158.7207.5293.9258.9404.2061.4121.3096.9316.3096,1.5586v16.1133c0,.6279-.1035,1.1475-.3096,1.5586-.2051.4121-.5146.7256-.9258.9414-.4121.2158-.9219.3232-1.5293.3232h-.6758c-.6084,0-1.1133-.1074-1.5146-.3232ZM374.82,313.3958c.1758-.1865.2646-.4268.2646-.7207v-16.4072c0-.2939-.0889-.5342-.2646-.7207-.1768-.1855-.3926-.2793-.6475-.2793h-.6465c-.2754,0-.5.0938-.6768.2793-.1758.1865-.2646.4268-.2646.7207v16.4072c0,.2939.0928.5342.2793.7207s.4072.2793.6621.2793h.6465c.2549,0,.4707-.0928.6475-.2793Z"/><path class="b" d="M230.9176,77.1745c-54.4395,0-98.5714,44.1319-98.5714,98.5714s44.1319,98.5715,98.5714,98.5715,98.5714-44.132,98.5714-98.5715-44.1319-98.5714-98.5714-98.5714ZM230.9176,268.6105c-51.2877,0-92.8646-41.5769-92.8646-92.8646s41.5769-92.8646,92.8646-92.8646,92.8646,41.5769,92.8646,92.8646-41.5769,92.8646-92.8646,92.8646Z"/></svg>